/* XPM */
static char *_ee6f13dc2484b3fe42ec69508c9db8bYqZBvgm0kp26D13m[] = {
/* columns rows colors chars-per-pixel */
"64 64 4 1 ",
"  c None",
". c #005269",
"X c #005369",
"o c #00536A",
/* pixels */
"                                                                ",
"                                                                ",
"                                                                ",
"                                                                ",
"                                                                ",
"                        oooooooooooooo                          ",
"                      ooooooooooooooooooo                       ",
"                    ooooooooooooooooooooooo                     ",
"                  oooooooooooooooooooooooooo                    ",
"                 oooooooooooooooooooooooooooo                   ",
"                ooooooooooooooooooooooooooooooo                 ",
"               ooooooooooo          ooooooooooo                 ",
"              oooooooooo              oooooooooo                ",
"             ooooooooo                  ooooooooo               ",
"             oooooooo                    oooooooo               ",
"            oooooooo                      oooooooo              ",
"            ooooooo                        ooooooo              ",
"            ooooooo                        oooooooo             ",
"            ooooooo                        oooooooo             ",
"            ooooooo                        oooooooo             ",
"            ooooooo                         ooooooo             ",
"            ooooooo                         ooooooo             ",
"            ooooooo                         oooooo              ",
"            ooooooo     ooooooooooooooo                         ",
"            ooooooo  ooooooooooooooooooooo                      ",
"            oooooooooooooooooooooooooooooooo                    ",
"            oooooooooooooooooo  oooooooooooooo                  ",
"            oooooooooooo              oooooooooo                ",
"            oooooooooo                   oooooooo               ",
"            oooooooo      oooooooooo      oooooooo              ",
"            oooooo     oooooo     ooooo     ooooooo             ",
"           oooooo    oooo             ooo    ooooooo            ",
"          oooooo    ooo     oooooo    ooooo   ooooooo           ",
"         oooooo    oo    ooooooooooooooooooo   oooooo           ",
"         ooooo    oo   oooo        oooooooooo   oooooo          ",
"        oooooo   oo   ooooo          oooo  ooo   oooooo         ",
"        ooooo   oo   oooooooooooooo    oo   oo   oooooo         ",
"        ooooo   o   ooo  ooooo   oooo   oo   oo   ooooo         ",
"       ooooo   oo   oo   oo        ooo  ooo  oo   oooooo        ",
"       ooooo   o   oo   oo     o    oo   oo   o   oooooo        ",
"       ooooo   o   oo  ooo   ooooo   oo  oo   oo  oooooo        ",
"       ooooo   o   oo  ooo  oo  oo   ooo ooo  oooooooooo        ",
"       ooooo   o   oo  ooo  oo  oo   oooooo   oooooooooo        ",
"       ooooo   o   oo  ooo  oo  oo   oooooo   oooooooooo        ",
"       oooooo oo   oo  ooo  oo  oo   oooooo   oooooooooo        ",
"       ooooooooo   oo  ooo  oo  oo   oo   o   oooooooooo        ",
"       ooooooooo   oo  ooooooo  oo   oo   oo  ooooooooo         ",
"        oooooooo   oo  ooooooo  oo   oo   o   ooooooooo         ",
"        oooooooo   oo  ooooooo  oo   oo   o   ooooooooo         ",
"         oooooo   ooo  ooo ooo  oo   oo  oo  ooooooooo          ",
"         oooooo   oo   oo   o   oo  ooo  oo  ooooooooo          ",
"          oooooooooo  ooo  oo   o   oo   oo  oooooooo           ",
"           oooooooo   oo   oo  oo   oo   ooo ooooooo            ",
"           oooooooo  oo   oo   oo  ooo  oooooooooooo            ",
"            ooooooooooo   oo  oo   oo   ooooooooooo             ",
"             oooooooooo  oo   oo   ooo ooooooooooo              ",
"               ooooooooooooooooo  oooooooooooooo                ",
"                ooooooooooooooooooooooooooooooo                 ",
"                  ooooooooooooooooooooooooooo                   ",
"                    ooooooooooooooooooooooo                     ",
"                      ooooooooooooooooooo                       ",
"                           ooooooooo                            ",
"                                                                ",
"                                                                "
};
