/* XPM */
static char *_762c2bc219e4637ad24d5e72baacf60xiGSN2vvW135BI7l[] = {
/* columns rows colors chars-per-pixel */
"32 32 4 1 ",
"  c None",
". c #005269",
"X c #005369",
"o c #00536A",
/* pixels */
"                                ",
"                                ",
"             ooooo              ",
"          ooooooooooo           ",
"         ooooooooooooo          ",
"        oooooo   oooooo         ",
"       ooooo        oooo        ",
"      oooo           oooo       ",
"      oooo           oooo       ",
"      ooo             ooo       ",
"      ooo             ooo       ",
"      ooo    ooooo     o        ",
"      oooooooooooooooo          ",
"      ooooooo     ooooo         ",
"      oooo           oooo       ",
"      ooo  oo      o  oooo      ",
"     ooo  o  ooooo ooo oooo     ",
"    ooo  o ooo    ooooo ooo     ",
"    oo  o oooooooo  o o  ooo    ",
"    oo    o o     o o  o ooo    ",
"   ooo o  o o ooo oooo o ooo    ",
"   ooo o o  o o o oooo ooooo    ",
"    oooo o  o o o oooo ooooo    ",
"    oooo o  ooo o oo o ooooo    ",
"    oooo o oooo o o  o oooo     ",
"     ooooo o  o o o  o oooo     ",
"     oooo  o o    o oooooo      ",
"      oooooo o o oo ooooo       ",
"        oooooooooooooooo        ",
"         ooooooooooooo          ",
"            ooooooo             ",
"                                "
};
