/* XPM */
static char *_d8bcdec662e4831ac9aeb3e30768d152ScDHwOpLfsoYSXU[] = {
/* columns rows colors chars-per-pixel */
"128 128 6 1 ",
"  c None",
". c #005269",
"X c #005369",
"o c #00536A",
"O c #01536A",
"+ c #02536A",
/* pixels */
"                                                                                                                                ",
"                                                                                                                                ",
"                                                                                                                                ",
"                                                                                                                                ",
"                                                                                                                                ",
"                                                                                                                                ",
"                                                                                                                                ",
"                                                                                                                                ",
"                                                                                                                                ",
"                                                        ooooooo+oooo                                                            ",
"                                                   ooooooooooooooooooooooo                                                      ",
"                                               oooooooooooooooooooooooooooooo                                                   ",
"                                            oooooooooooooooooooooooooooooooooooo                                                ",
"                                          oooooooooooooooooooooooooooooooooooooooo                                              ",
"                                        oooooooooooooooooooooooooooooooooooooooooooo                                            ",
"                                      oooooooooooooooooooooooooooooooooooooooooooooooo                                          ",
"                                     ooooooooooooooooooooooooooooooooooooooooooooooooooo                                        ",
"                                   oooooooooooooooooooooooooooooooooooooooooooooooooooooo                                       ",
"                                  oooooooooooooooooooooooooooooooooooooooooooooooooooooooo                                      ",
"                                 oooooooooooooooooooooooooooooooooooooooooooooooooooooooooo                                     ",
"                                ooooooooooooooooooooooooooooooooooooooooooooooooooooooooooooo                                   ",
"                               ooooooooooooooooooooooooooooooooooooooooooooooooooooooooooooooo                                  ",
"                              ooooooooooooooooooooooooo               ooooooooooooooooooooooooo                                 ",
"                             oooooooooooooooooooooo                      oooooooooooooooooooooo                                 ",
"                            ooooooooooooooooooooo                          ooooooooooooooooooooo                                ",
"                           oooooooooooooooooooo                              oooooooooooooooooooo                               ",
"                           oooooooooooooooooo                                  ooooooooooooooooooo                              ",
"                          oooooooooooooooooo                                    oooooooooooooooooo                              ",
"                          ooooooooooooooooo                                      oooooooooooooooooo                             ",
"                         ooooooooooooooooo                                         oooooooooooooooo                             ",
"                         oooooooooooooooo                                          ooooooooooooooooo                            ",
"                        oooooooooooooooo                                            oooooooooooooooo                            ",
"                        ooooooooooooooo                                              ooooooooooooooo                            ",
"                        ooooooooooooooo                                               ooooooooooooooo                           ",
"                        o.oooooooooooo                                                ooooooooooooooo                           ",
"                        oooooooooooooo                                                ooooooooooooooo                           ",
"                        .oooooooooooo                                                  oooooooooooooo                           ",
"                        ooooooooooooo                                                  ooooooooooooooo                          ",
"                        ooooooooooooo                                                  ooooooooooooooo                          ",
"                        ooooooooooooo                                                  ooooooooooooooo                          ",
"                        ooooooooooooo                                                  ooooooooooooooo                          ",
"                        ooooooooooooo                                                  ooooooooooooooo                          ",
"                        ooooooooooooo                                                  ooooooooooooooo                          ",
"                        ooooooooooooo                                                  ooooooooooooooo                          ",
"                        ooooooooooooo                                                   ooooooooooooo                           ",
"                        ooooooooooooo                   oooooooooooooo                    ooooooooo                             ",
"                        ooooooooooooo             oooooooooooooooooooooooooo                                                    ",
"                        ooooooooooooo         oooooooooooooooooooooooooooooooooo                                                ",
"                        ooooooooooooo      oooooooooooooooooooooooooooooooooooooooo                                             ",
"                        ooooooooooooo   ooooooooooooooooooooooooooooooooooooooooooooo                                           ",
"                        oooooooooooooooooooooooooooooooooooooooooooooooooooooooooooooooo                                        ",
"                        oooooooooooooooooooooooooooooooooooooooooooooooooooooooooooooooooo                                      ",
"                        oooooooooooooooooooooooooooooooooooooooooooooooooooooooooooooooooooo                                    ",
"                        ooooooooooooooooooooooooooooooo              oooooooooooooooooooooooo                                   ",
"                        oooooooooooooooooooooooooo                        ooooooooooooooooooooo                                 ",
"                        ooooooooooooooooooooooo                               oooooooooooooooooo                                ",
"                        oooooooooooooooooooo                                    ooooooooooooooooo                               ",
"                        oooooooooooooooooo                                        ooooooooooooooooo                             ",
"                        oooooooooooooooo              oooooooooooooooo              oooooooooooooooo                            ",
"                        ooooooooooooooo           oooooooooooooooooooooooo            ooooooooooooooo                           ",
"                        ooooooooooooo           ooooooooooooooooooooooooooooo          ooooooooooooooo                          ",
"                       ooooooooooooo         ooooooooo                 ooooooooo         oooooooooooooo                         ",
"                      oooooooooooo         oooooooo                        ooooooo        oooooooooooooo                        ",
"                     oooooooooooo         oooooo                            ooooooo        oooooooooooooo                       ",
"                     ooooooooooo        oooooo            oooooooo           oooooooo       ooooooooooooo                       ",
"                    ooooooooooo        ooooo         oooooooooooooooooo      ooooooooo       ooooooooooooo                      ",
"                   ooooooooooo        ooooo        ooooooooooooooooooooooo  ooooooooooo       ooooooooooooo                     ",
"                   ooooooooooo       oooo       oooooooooooooooooooooooooooooooooooooooo       oooooooooooo                     ",
"                  ooooooooooo       oooo       oooooooo             ooooooooooooooooooooo       oooooooooooo                    ",
"                  oooooooooo       oooo      ooooooooo                 ooooooooooo   ooooo      oooooooooooo                    ",
"                 oooooooooo       oooo      oooooooooo                   oooooooo     ooooo      oooooooooooo                   ",
"                 oooooooooo      oooo      oooooooooooo  oooooooo          oooooo      ooooo     oooooooooooo                   ",
"                oooooooooo       ooo      ooooooooooooooooooooooooooo       oooooo     ooooo      oooooooooooo                  ",
"                oooooooooo      ooo      oooooooooooooooooooooooooooooo       ooooo     ooooo     oooooooooooo                  ",
"               ooooooooooo      ooo      ooooo   ooooooooooooooooooooooo       ooooo     oooo      ooooooooooo                  ",
"               oooooooooo      ooo      ooooo     ooooooo          ooooooo      oooo      oooo     oooooooooooo                 ",
"               oooooooooo      ooo     ooooo      ooooo              oooooo     ooooo     oooo      ooooooooooo                 ",
"               oooooooooo     ooo      ooooo     ooooo                 ooooo     oooo      oooo     ooooooooooo                 ",
"              oooooooooo      ooo      oooo     ooooo                   oooo      oooo     oooo     ooooooooooo                 ",
"              oooooooooo      ooo     ooooo    ooooo        oooooo       oooo     oooo     oooo     oooooooooooo                ",
"              oooooooooo      oo      oooo    ooooo       ooooooooo      ooooo    ooooo    oooo     oooooooooooo                ",
"              oooooooooo     ooo      oooo    ooooo      ooooooooooo      oooo     oooo     ooo     oooooooooooo                ",
"              oooooooooo     ooo      oooo    ooooo      ooo    ooooo     ooooo   ooooo     ooooo oooooooooooooo                ",
"              oooooooooo     ooo      oooo    ooooo      ooo     oooo     ooooooooooooo     oooooooooooooooooooo                ",
"              oooooooooo     ooo      oooo    ooooo      ooo     oooo     ooooooooooooo     oooooooooooooooooooo                ",
"              oooooooooo     ooo      oooo    ooooo      ooo     oooo     ooooooooooooo     oooooooooooooooooooo                ",
"              oooooooooo     ooo      oooo    ooooo      ooo     oooo     ooooooooooooo     oooooooooooooooooooo                ",
"              oooooooooo      oo      oooo    ooooo      ooo     oooo     ooooooooooooo     oooooooooooooooooooo                ",
"              oooooooooo     ooo      oooo    ooooo      ooo     oooo     ooooooooooooo     oooooooooooooooooooo                ",
"              oooooooooooooooooo      oooo    ooooo      ooo     oooo     ooooooooooooo     oooooooooooooooooooo                ",
"              oooooooooooooooooo      oooo    ooooo      ooo     oooo     oooo     oooo     ooooooooooooooooooo                 ",
"               ooooooooooooooooo      oooo    ooooo      ooo     oooo     oooo      ooo     ooooooooooooooooooo                 ",
"               ooooooooooooooooo      oooo    oooooo    oooo     oooo     oooo      ooo     ooooooooooooooooooo                 ",
"               ooooooooooooooooo      oooo    oooooooooooooo     oooo     oooo      ooo     ooooooooooooooooooo                 ",
"               ooooooooooooooooo      oooo    oooooooooooooo     oooo     oooo     oooo     oooooooooooooooooo                  ",
"                oooooooooooooooo      oooo    oooooooooooooo     ooo      oooo     oooo     oooooooooooooooooo                  ",
"                oooooooooooooooo      oooo    oooooooooooooo     ooo      oooo     oooo    ooooooooooooooooooo                  ",
"                 ooooooooooooooo     ooooo    oooooooooooooo     ooo     ooooo     oooo    oooooooooooooooooo                   ",
"                 oooooooooooooo     ooooo     ooooooooooooo     oooo     ooooo     oooo    oooooooooooooooooo                   ",
"                  ooooooooooooo     ooooo     ooooo    oooo     oooo     oooo      oooo   oooooooooooooooooo                    ",
"                  ooooooooooooo     ooooo    ooooo     oooo     ooo      oooo     ooooo   oooooooooooooooooo                    ",
"                   oooooooooooo     oooo     ooooo     oooo     ooo     ooooo     ooooo   ooooooooooooooooo                     ",
"                   ooooooooooooooooooooo     oooo      ooo     oooo     ooooo     ooooo   ooooooooooooooooo                     ",
"                    ooooooooooooooooooo     ooooo     oooo     oooo     oooo      ooooo   oooooooooooooooo                      ",
"                     ooooooooooooooooo      ooooo     oooo     ooo      oooo     oooooo   ooooooooooooooo                       ",
"                     ooooooooooooooooo     ooooo     oooo     oooo     ooooo     ooooooo  oooooooooooooo                        ",
"                      ooooooooooooooo     ooooo      oooo     ooo      oooo      ooooooooooooooooooooooo                        ",
"                       oooooooooooooo     oooo      oooo     oooo     ooooo     ooooooooooooooooooooooo                         ",
"                        ooooooooooooooo oooooo     oooo      oooo     oooo      oooooooooooooooooooooo                          ",
"                         oooooooooooooooooooo      oooo     oooo      oooo      ooooooooooooooooooooo                           ",
"                          oooooooooooooooooooo    oooo      oooo     ooooo     ooooooooooooooooooooo                            ",
"                           ooooooooooooooooooooooooooo     oooo      ooooooo  ooooooooooooooooooooo                             ",
"                             oooooooooooooooooooooooooo   ooooo     ooooooooooooooooooooooooooooo                               ",
"                              oooooooooooooooooooooooooooooooooo    oooooooooooooooooooooooooooo                                ",
"                               oooooooooooooooooooooooooooooooooooooooooooooooooooooooooooooooo                                 ",
"                                 oooooooooooooooooooooooooooooooooooooooooooooooooooooooooooo                                   ",
"                                   oooooooooooooooooooooooooooooooooooooooooooooooooooooooo                                     ",
"                                    oooooooooooooooooooooooooooooooooooooooooooooooooooooo                                      ",
"                                      ooooooooooooooooooooooooooooooooooooooooooooooooo                                         ",
"                                         oooooooooooooooooooooooooooooooooooooooooooo                                           ",
"                                           oooooooooooooooooooooooooooooooooooooooo                                             ",
"                                               oooooooooooooooooooooooooooooooo                                                 ",
"                                                   oooooooooooooooooooooooo                                                     ",
"                                                          oooooooooo                                                            ",
"                                                                                                                                ",
"                                                                                                                                ",
"                                                                                                                                ",
"                                                                                                                                "
};
